<svg width="404" height="404" viewBox="0 0 404 404" fill="none" xmlns="http://www.w3.org/2000/svg">
<path fill-rule="evenodd" clip-rule="evenodd" d="M12 0C5.37258 0 0 5.37258 0 12V392C0 398.627 5.37258 404 12 404H392C398.627 404 404 398.627 404 392V12C404 5.37258 398.627 0 392 0H12ZM277.163 281.028C282.512 278.719 284.976 272.505 282.66 267.152C269.136 235.878 237.464 215.671 201.974 215.664C165.727 215.664 133.865 235.973 120.809 267.405C118.575 272.786 121.126 278.966 126.51 281.207C127.837 281.756 129.206 282.013 130.557 282.013C134.692 282.013 138.623 279.564 140.312 275.503C150.081 251.981 174.289 236.779 201.978 236.779C229.043 236.779 253.103 251.992 263.284 275.531C265.599 280.884 271.811 283.35 277.163 281.028ZM150.426 121C138.377 121 128.604 130.776 128.604 142.822C128.604 154.875 138.377 164.647 150.426 164.651C162.472 164.651 172.245 154.878 172.245 142.822C172.245 130.773 162.472 121 150.426 121ZM249.38 121C237.33 121 227.551 130.776 227.551 142.822C227.551 154.875 237.33 164.651 249.38 164.651C261.429 164.651 271.198 154.878 271.198 142.822C271.198 130.773 261.426 121 249.38 121Z" fill="#EAEAFF"/>
</svg>
