<svg width="150" height="228" viewBox="0 0 150 228" fill="none" xmlns="http://www.w3.org/2000/svg">
<path opacity="0.6" fill-rule="evenodd" clip-rule="evenodd" d="M0 3.88084C0 1.73751 1.73752 0 3.88085 0H145.532C147.675 0 149.413 1.73752 149.413 3.88085V224.119C149.413 226.262 147.675 228 145.532 228H3.88085C1.73752 228 0 226.262 0 224.119V3.88084ZM135.829 12.2133H13.5825C12.8251 12.2133 12.2111 12.8273 12.2111 13.5847V214.419C12.2111 215.176 12.8251 215.79 13.5825 215.79H135.829C136.587 215.79 137.201 215.176 137.201 214.419V13.5847C137.201 12.8273 136.587 12.2133 135.829 12.2133ZM13.5825 9.70388C11.4392 9.70388 9.70168 11.4414 9.70168 13.5847V214.419C9.70168 216.562 11.4392 218.3 13.5825 218.3H135.829C137.973 218.3 139.71 216.562 139.71 214.419V13.5847C139.71 11.4414 137.973 9.70388 135.829 9.70388H13.5825ZM49.5881 66.784C49.6681 66.736 49.7375 66.6533 49.7961 66.536L50.3241 65.52C49.9188 65.136 49.4281 64.8373 48.8521 64.624C48.2761 64.4107 47.6468 64.304 46.9641 64.304C46.3615 64.304 45.8255 64.3973 45.3561 64.584C44.8868 64.7707 44.4895 65.0187 44.1641 65.328C43.8441 65.6373 43.5988 65.992 43.4281 66.392C43.2628 66.792 43.1801 67.2027 43.1801 67.624C43.1801 68.152 43.2548 68.5973 43.4041 68.96C43.5588 69.3173 43.7615 69.616 44.0121 69.856C44.2628 70.096 44.5481 70.2907 44.8681 70.44C45.1881 70.5893 45.5135 70.7173 45.8441 70.824C46.1748 70.9307 46.5001 71.0293 46.8201 71.12C47.1401 71.2107 47.4255 71.3227 47.6761 71.456C47.9268 71.584 48.1268 71.744 48.2761 71.936C48.4308 72.128 48.5081 72.376 48.5081 72.68C48.5081 73.224 48.3401 73.6427 48.0041 73.936C47.6681 74.224 47.1935 74.368 46.5801 74.368C46.1801 74.368 45.8361 74.3147 45.5481 74.208C45.2655 74.096 45.0175 73.9733 44.8041 73.84C44.5961 73.7067 44.4148 73.5867 44.2601 73.48C44.1055 73.368 43.9615 73.312 43.8281 73.312C43.7268 73.312 43.6335 73.3387 43.5481 73.392C43.4681 73.44 43.3988 73.5013 43.3401 73.576L42.7161 74.608C42.9401 74.8373 43.1935 75.0453 43.4761 75.232C43.7641 75.4187 44.0708 75.5787 44.3961 75.712C44.7268 75.8453 45.0708 75.9467 45.4281 76.016C45.7855 76.0907 46.1481 76.128 46.5161 76.128C47.1561 76.128 47.7241 76.032 48.2201 75.84C48.7161 75.6427 49.1348 75.376 49.4761 75.04C49.8228 74.6987 50.0841 74.3013 50.2601 73.848C50.4415 73.3893 50.5321 72.8987 50.5321 72.376C50.5321 71.896 50.4548 71.488 50.3001 71.152C50.1508 70.816 49.9508 70.5333 49.7001 70.304C49.4495 70.0693 49.1641 69.8773 48.8441 69.728C48.5241 69.5733 48.1961 69.44 47.8601 69.328C47.5295 69.2107 47.2041 69.1013 46.8841 69C46.5641 68.8987 46.2788 68.784 46.0281 68.656C45.7775 68.528 45.5748 68.3733 45.4201 68.192C45.2708 68.0107 45.1961 67.784 45.1961 67.512C45.1961 67.2987 45.2335 67.104 45.3081 66.928C45.3828 66.7467 45.4948 66.592 45.6441 66.464C45.7988 66.336 45.9855 66.2373 46.2041 66.168C46.4281 66.0933 46.6895 66.056 46.9881 66.056C47.3188 66.056 47.6041 66.0987 47.8441 66.184C48.0895 66.264 48.3028 66.3547 48.4841 66.456C48.6655 66.5573 48.8228 66.6507 48.9561 66.736C49.0895 66.816 49.2095 66.856 49.3161 66.856C49.4228 66.856 49.5135 66.832 49.5881 66.784ZM54.9982 76H57.1582V64.432H54.9982V76ZM69.1095 74.224H64.4775V64.432H62.3255V76H69.1095V74.224ZM72.2199 64.432H70.4839L75.1559 76H77.0999L81.7719 64.432H80.0359C79.8545 64.432 79.7025 64.4827 79.5799 64.584C79.4572 64.6853 79.3719 64.7973 79.3239 64.92L76.6119 71.976C76.4305 72.4453 76.2785 72.9867 76.1559 73.6C76.0812 73.296 76.0012 73.008 75.9159 72.736C75.8359 72.4587 75.7505 72.2053 75.6599 71.976L72.9399 64.92C72.8812 64.776 72.7932 64.6587 72.6759 64.568C72.5585 64.4773 72.4065 64.432 72.2199 64.432ZM92.8353 66.144V64.432H85.5392V76H92.8353V74.28H87.7072V71.008H91.7472V69.352H87.7072V66.144H92.8353ZM99.4795 76V71.48H100.399C100.613 71.48 100.773 71.5093 100.879 71.568C100.991 71.6267 101.093 71.7253 101.183 71.864L103.615 75.568C103.706 75.7067 103.815 75.8133 103.943 75.888C104.077 75.9627 104.237 76 104.423 76H106.359L103.463 71.728C103.266 71.44 103.031 71.2187 102.759 71.064C103.165 70.936 103.525 70.7653 103.839 70.552C104.159 70.3387 104.426 70.0907 104.639 69.808C104.858 69.5253 105.023 69.2107 105.135 68.864C105.253 68.5173 105.311 68.1493 105.311 67.76C105.311 67.2693 105.226 66.8213 105.055 66.416C104.89 66.0053 104.626 65.6533 104.263 65.36C103.906 65.0667 103.445 64.84 102.879 64.68C102.319 64.5147 101.645 64.432 100.855 64.432H97.3275V76H99.4795ZM100.823 69.936H99.4795V66.096H100.855C101.65 66.096 102.239 66.2533 102.623 66.568C103.013 66.8827 103.207 67.3333 103.207 67.92C103.207 68.2133 103.159 68.4827 103.063 68.728C102.967 68.9733 102.821 69.1867 102.623 69.368C102.431 69.544 102.183 69.6827 101.879 69.784C101.581 69.8853 101.229 69.936 100.823 69.936ZM74.7794 141.049C77.9975 136.361 81.2157 131.673 84.4338 127.025C87.5327 122.535 90.5919 118.085 93.6511 113.596C93.9293 113.199 94.2471 113.04 94.7239 113.04C98.5777 113.079 102.392 113.079 106.246 113.04C106.841 113.04 107 113.199 107 113.795C106.961 125.594 106.961 137.394 107 149.154C107 149.83 106.683 149.83 106.206 149.83H90.0357C89.958 149.83 89.8756 149.82 89.7913 149.81C89.5308 149.78 89.2526 149.748 89.0425 149.989C89.0425 150.346 88.8438 150.664 88.6452 150.942C86.9626 153.095 85.3417 155.309 83.7248 157.518C82.7456 158.856 81.7677 160.191 80.7786 161.51C80.7276 161.578 80.6802 161.652 80.6326 161.726C80.4577 161.997 80.2793 162.274 79.9046 162.305C78.2359 162.325 76.5573 162.335 74.8787 162.345C73.2001 162.355 71.5216 162.364 69.8529 162.384C69.4443 162.384 69.2691 162.122 69.1023 161.871L69.1022 161.871C69.0744 161.83 69.0469 161.788 69.0186 161.749C66.6348 158.689 64.3304 155.63 62.0261 152.571C61.5497 152.404 61.3018 152.023 61.0427 151.625C60.8696 151.359 60.6915 151.085 60.4369 150.863C60.3518 151.061 60.368 151.26 60.3842 151.459C60.3907 151.538 60.3972 151.618 60.3972 151.697V169.138C60.3972 169.229 60.4009 169.321 60.4046 169.414C60.4219 169.847 60.4396 170.288 60.0793 170.648C59.7615 170.688 59.4437 170.728 59.1258 170.728H59.1197C53.7979 170.728 48.4762 170.728 43.1544 170.767C42.3598 170.767 42.2009 170.529 42.2009 169.774C42.2009 151.18 42.2009 132.547 42.1611 113.954C42.1611 113.199 42.3598 113 43.0749 113C46.5712 113.04 50.0674 113.04 53.5239 113C54.5171 113 55.3117 113.119 55.7488 114.112C55.8385 114.352 56.0181 114.546 56.2031 114.746C56.264 114.811 56.3254 114.878 56.3845 114.947C57.1812 115.64 57.7364 116.484 58.2869 117.32C58.3677 117.443 58.4485 117.566 58.5299 117.688C62.3439 123.29 66.1978 128.852 70.0913 134.375C71.5613 136.401 72.9916 138.467 74.3424 140.573C74.3584 140.594 74.3736 140.617 74.3886 140.64C74.4023 140.662 74.4158 140.684 74.4295 140.706C74.5127 140.843 74.6021 140.99 74.7794 141.049ZM91.625 168.98C91.625 170.768 91.625 170.768 93.3731 170.887C93.7233 171.167 94.1044 171.2 94.462 171.232C94.51 171.236 94.5577 171.24 94.6047 171.245H105.61C105.646 171.245 105.683 171.245 105.719 171.245C106.125 171.248 106.55 171.251 106.842 170.887C106.842 170.827 106.852 170.768 106.861 170.708C106.871 170.649 106.881 170.589 106.881 170.529C106.881 165.722 106.881 160.875 106.921 156.068C106.921 155.353 106.524 155.353 106.007 155.353C101.597 155.353 97.1475 155.353 92.6977 155.313C91.7839 155.273 91.625 155.591 91.625 156.425V168.98Z" fill="#EAEAFF"/>
</svg>
